<svg xmlns="http://www.w3.org/2000/svg" xmlns:xlink="http://www.w3.org/1999/xlink" width="32" height="32" viewBox="0 0 32 32">
  <defs>
    <linearGradient id="linear-gradient" x1="0.167" y1="0.879" x2="0.875" y2="0.179" gradientUnits="objectBoundingBox">
      <stop offset="0" stop-color="#c52530"/>
      <stop offset="1" stop-color="#f5913a"/>
    </linearGradient>
  </defs>
  <g id="Group_44" data-name="Group 44" transform="translate(0)">
    <rect id="Rectangle_118" data-name="Rectangle 118" width="23.497" height="24.106" transform="translate(4.243 3.22)" fill="url(#linear-gradient)"/>
    <path id="Path_48" data-name="Path 48" d="M784.71,123.307a3.912,3.912,0,0,1,3.91,3.91V151.4a3.912,3.912,0,0,1-3.91,3.91H760.53a3.912,3.912,0,0,1-3.91-3.91V127.217a3.911,3.911,0,0,1,3.91-3.91Zm-12.09,5.063c-2.971,0-3.343.013-4.51.066a8.025,8.025,0,0,0-2.655.508,5.592,5.592,0,0,0-3.2,3.2,8.029,8.029,0,0,0-.509,2.655c-.053,1.167-.066,1.539-.066,4.509s.013,3.343.066,4.509a8.029,8.029,0,0,0,.509,2.655,5.592,5.592,0,0,0,3.2,3.2,8.026,8.026,0,0,0,2.655.508c1.167.053,1.539.066,4.51.066s3.343-.013,4.509-.066a8.027,8.027,0,0,0,2.655-.508,5.593,5.593,0,0,0,3.2-3.2,8.031,8.031,0,0,0,.508-2.655c.053-1.167.066-1.539.066-4.509s-.013-3.343-.066-4.509a8.031,8.031,0,0,0-.508-2.655,5.592,5.592,0,0,0-3.2-3.2,8.026,8.026,0,0,0-2.655-.508C775.963,128.382,775.59,128.37,772.62,128.37Zm0,1.971c2.92,0,3.266.011,4.42.064a6.056,6.056,0,0,1,2.031.377,3.622,3.622,0,0,1,2.076,2.076,6.053,6.053,0,0,1,.376,2.031c.053,1.153.064,1.5.064,4.42s-.011,3.266-.064,4.42a6.053,6.053,0,0,1-.376,2.031,3.622,3.622,0,0,1-2.076,2.076,6.053,6.053,0,0,1-2.031.377c-1.153.053-1.5.064-4.42.064s-3.267-.011-4.42-.064a6.054,6.054,0,0,1-2.031-.377,3.622,3.622,0,0,1-2.076-2.076,6.05,6.05,0,0,1-.377-2.031c-.053-1.153-.064-1.5-.064-4.42s.011-3.266.064-4.42a6.05,6.05,0,0,1,.377-2.031,3.622,3.622,0,0,1,2.076-2.076,6.057,6.057,0,0,1,2.031-.377c1.153-.053,1.5-.064,4.42-.064Zm0,3.35a5.617,5.617,0,1,0,5.616,5.617,5.617,5.617,0,0,0-5.616-5.617Zm0,9.262a3.646,3.646,0,1,1,3.646-3.646A3.646,3.646,0,0,1,772.62,142.953Zm7.151-9.484a1.313,1.313,0,1,1-1.312-1.312,1.312,1.312,0,0,1,1.313,1.312Z" transform="translate(-756.62 -123.307)" fill="#fff" fill-rule="evenodd"/>
  </g>
</svg>
