<svg id="Group_42" data-name="Group 42" xmlns="http://www.w3.org/2000/svg" xmlns:xlink="http://www.w3.org/1999/xlink" width="32" height="32" viewBox="0 0 32 32">
  <defs>
    <linearGradient id="linear-gradient" x1="0.79" y1="0.157" x2="0.186" y2="0.885" gradientUnits="objectBoundingBox">
      <stop offset="0" stop-color="#f5913a"/>
      <stop offset="1" stop-color="#c52530"/>
    </linearGradient>
  </defs>
  <rect id="Rectangle_116" data-name="Rectangle 116" width="25.363" height="25.363" transform="translate(2.998 3.865)" fill="url(#linear-gradient)"/>
  <path id="Path_46" data-name="Path 46" d="M708.337,157.393a3.911,3.911,0,0,1,3.91,3.91v24.181a3.912,3.912,0,0,1-3.91,3.91H684.157a3.912,3.912,0,0,1-3.91-3.91V161.3a3.911,3.911,0,0,1,3.91-3.91Zm-15.87,26.534a13.053,13.053,0,0,0,13.142-13.142c0-.2,0-.4-.01-.594a9.463,9.463,0,0,0,2.308-2.395,9.373,9.373,0,0,1-2.653.728,4.616,4.616,0,0,0,2.031-2.557,9.35,9.35,0,0,1-2.931,1.121,4.621,4.621,0,0,0-7.988,3.161,4.231,4.231,0,0,0,.124,1.054,13.1,13.1,0,0,1-9.521-4.828,4.617,4.617,0,0,0,1.437,6.159,4.537,4.537,0,0,1-2.088-.575v.058a4.624,4.624,0,0,0,3.707,4.531,4.6,4.6,0,0,1-1.217.163,4.41,4.41,0,0,1-.872-.086,4.612,4.612,0,0,0,4.31,3.209,9.284,9.284,0,0,1-5.737,1.973,8.4,8.4,0,0,1-1.1-.067,12.868,12.868,0,0,0,7.059,2.088Z" transform="translate(-680.247 -157.393)" fill="#fff" fill-rule="evenodd"/>
</svg>
