<svg xmlns="http://www.w3.org/2000/svg" xmlns:xlink="http://www.w3.org/1999/xlink" width="222.579" height="196.484" viewBox="0 0 222.579 196.484">
  <defs>
    <filter id="Path_213" x="0" y="0" width="222.579" height="196.484" filterUnits="userSpaceOnUse">
      <feOffset dx="4" dy="4" input="SourceAlpha"/>
      <feGaussianBlur stdDeviation="4" result="blur"/>
      <feFlood flood-opacity="0.161"/>
      <feComposite operator="in" in2="blur"/>
      <feComposite in="SourceGraphic"/>
    </filter>
  </defs>
  <g id="Group_59" data-name="Group 59" transform="translate(-364 -1767.516)">
    <g id="Group_58" data-name="Group 58" transform="translate(-6.651)">
      <g transform="matrix(1, 0, 0, 1, 370.65, 1767.52)" filter="url(#Path_213)">
        <path id="Path_213-2" data-name="Path 213" d="M339.957,226.116c25.842,2.83,48.81,12.045,67.121,26.43,18.141,14.252,34,31.947,32.6,51.918-1.352,19.275-23.329,31.879-39.509,46.576-18.611,16.9-31.522,43.358-60.214,44-28.8.646-46.632-23.332-63.809-41.221-14.026-14.607-19.3-31.408-23.163-49.357-5.075-23.609-22.445-50.885-2.288-69.043,20.332-18.316,58.358-12.69,89.26-9.306" transform="translate(-233.19 -214.57)" fill="#c52530"/>
      </g>
    </g>
    <g id="bill-3" transform="translate(420 1810.516)">
      <path id="Path_186" data-name="Path 186" d="M48.612,118.57a1.711,1.711,0,0,0,1.919-.688l2-3,2,3a1.711,1.711,0,0,0,2.847,0l2-3,2,3a1.711,1.711,0,0,0,2.847,0l2-3,2,3a1.711,1.711,0,0,0,2.847,0l2-3,2,3a1.711,1.711,0,0,0,2.847,0l2-3,2,3a1.711,1.711,0,0,0,2.847,0l2-3,2,3a1.711,1.711,0,0,0,2.847,0l2-3,2,3a1.711,1.711,0,0,0,2.847,0l2-3,2,3a1.711,1.711,0,0,0,2.847,0l2-3,2,3a1.711,1.711,0,0,0,3.134-.949V50.215h6.843a8.563,8.563,0,0,0,8.554-8.554V24.554A8.563,8.563,0,0,0,119.247,16H40.554A8.563,8.563,0,0,0,32,24.554V41.661a8.563,8.563,0,0,0,8.554,8.554H47.4v66.718a1.711,1.711,0,0,0,1.215,1.637ZM47.4,39.95H43.975a1.713,1.713,0,0,1-1.711-1.711V34.818a1.713,1.713,0,0,1,1.711-1.711H47.4Zm61.586-3.421a1.711,1.711,0,0,0,0,3.421v71.333l-.287-.431a1.711,1.711,0,0,0-2.847,0l-2,3-2-3a1.711,1.711,0,0,0-2.847,0l-2,3-2-3a1.711,1.711,0,0,0-2.847,0l-2,3-2-3a1.711,1.711,0,0,0-2.847,0l-2,3-2-3a1.711,1.711,0,0,0-2.847,0l-2,3-2-3a1.711,1.711,0,0,0-2.847,0l-2,3-2-3a1.711,1.711,0,0,0-2.847,0l-2,3-2-3a1.711,1.711,0,0,0-2.847,0l-2,3-2-3a1.711,1.711,0,0,0-2.847,0l-.287.431V39.95a1.711,1.711,0,1,0,0-3.421V33.107h58.165ZM35.421,24.554a5.138,5.138,0,0,1,5.132-5.132h78.693a5.138,5.138,0,0,1,5.132,5.132v0a8.508,8.508,0,0,0-5.132-1.715H40.554a8.508,8.508,0,0,0-5.132,1.715Zm5.132,22.239a5.138,5.138,0,0,1-5.132-5.132V31.4a5.138,5.138,0,0,1,5.132-5.132h78.693a5.138,5.138,0,0,1,5.132,5.132V41.661a5.138,5.138,0,0,1-5.132,5.132H112.4V43.372h3.421a5.138,5.138,0,0,0,5.132-5.132V34.818a5.138,5.138,0,0,0-5.132-5.132H43.975a5.138,5.138,0,0,0-5.132,5.132v3.421a5.138,5.138,0,0,0,5.132,5.132H47.4v3.421ZM112.4,39.95V33.107h3.421a1.713,1.713,0,0,1,1.711,1.711v3.421a1.713,1.713,0,0,1-1.711,1.711Z" transform="translate(-32 -16)" fill="#e9e9e9"/>
      <path id="Path_187" data-name="Path 187" d="M345.711,115.421h1.711a1.711,1.711,0,1,0,0-3.421h-1.711a1.711,1.711,0,1,0,0,3.421Z" transform="translate(-277.282 -91.471)" fill="#e9e9e9"/>
      <path id="Path_188" data-name="Path 188" d="M305.711,115.421h1.711a1.711,1.711,0,0,0,0-3.421h-1.711a1.711,1.711,0,1,0,0,3.421Z" transform="translate(-245.835 -91.471)" fill="#e9e9e9"/>
      <path id="Path_189" data-name="Path 189" d="M265.711,115.421h1.711a1.711,1.711,0,0,0,0-3.421h-1.711a1.711,1.711,0,0,0,0,3.421Z" transform="translate(-214.389 -91.471)" fill="#e9e9e9"/>
      <path id="Path_190" data-name="Path 190" d="M225.711,115.421h1.711a1.711,1.711,0,1,0,0-3.421h-1.711a1.711,1.711,0,1,0,0,3.421Z" transform="translate(-182.943 -91.471)" fill="#e9e9e9"/>
      <path id="Path_191" data-name="Path 191" d="M185.711,115.421h1.711a1.711,1.711,0,1,0,0-3.421h-1.711a1.711,1.711,0,0,0,0,3.421Z" transform="translate(-151.496 -91.471)" fill="#e9e9e9"/>
      <path id="Path_192" data-name="Path 192" d="M145.711,115.421h1.711a1.711,1.711,0,1,0,0-3.421h-1.711a1.711,1.711,0,0,0,0,3.421Z" transform="translate(-120.05 -91.471)" fill="#e9e9e9"/>
      <path id="Path_193" data-name="Path 193" d="M232,277.686A13.686,13.686,0,1,0,245.686,264,13.686,13.686,0,0,0,232,277.686Zm13.686-10.264a10.264,10.264,0,1,1-10.264,10.264A10.264,10.264,0,0,1,245.686,267.421Z" transform="translate(-189.232 -210.967)" fill="#e9e9e9"/>
      <path id="Path_194" data-name="Path 194" d="M280,306.264a2.7,2.7,0,1,0,5.132,1.711v-.463a3.418,3.418,0,0,0-1.711-6.38h1.711a2.7,2.7,0,1,0-3.421-3.421v.463a3.418,3.418,0,0,0,1.711,6.38h-1.711A1.711,1.711,0,0,0,280,306.264Z" transform="translate(-226.965 -236.125)" fill="#e9e9e9"/>
      <path id="Path_195" data-name="Path 195" d="M153.711,203.421h20.529a1.711,1.711,0,1,0,0-3.421H153.711a1.711,1.711,0,0,0,0,3.421Z" transform="translate(-126.339 -160.653)" fill="#e9e9e9"/>
      <path id="Path_196" data-name="Path 196" d="M313.711,203.421h6.843a1.711,1.711,0,1,0,0-3.421h-6.843a1.711,1.711,0,1,0,0,3.421Z" transform="translate(-252.125 -160.653)" fill="#e9e9e9"/>
      <path id="Path_197" data-name="Path 197" d="M152,169.711a1.711,1.711,0,0,0,1.711,1.711h20.529a1.711,1.711,0,0,0,0-3.421H153.711A1.711,1.711,0,0,0,152,169.711Z" transform="translate(-126.339 -135.496)" fill="#e9e9e9"/>
      <path id="Path_198" data-name="Path 198" d="M313.711,171.421h6.843a1.711,1.711,0,1,0,0-3.421h-6.843a1.711,1.711,0,1,0,0,3.421Z" transform="translate(-252.125 -135.496)" fill="#e9e9e9"/>
      <path id="Path_199" data-name="Path 199" d="M175.95,233.711A1.711,1.711,0,0,0,174.239,232H153.711a1.711,1.711,0,0,0,0,3.421h20.529A1.711,1.711,0,0,0,175.95,233.711Z" transform="translate(-126.339 -185.81)" fill="#e9e9e9"/>
      <path id="Path_200" data-name="Path 200" d="M313.711,235.421h6.843a1.711,1.711,0,1,0,0-3.421h-6.843a1.711,1.711,0,1,0,0,3.421Z" transform="translate(-252.125 -185.81)" fill="#e9e9e9"/>
      <path id="Path_201" data-name="Path 201" d="M160.554,352h-6.843a1.711,1.711,0,1,0,0,3.421h6.843a1.711,1.711,0,1,0,0-3.421Z" transform="translate(-126.339 -280.149)" fill="#e9e9e9"/>
      <path id="Path_202" data-name="Path 202" d="M160.554,320h-6.843a1.711,1.711,0,1,0,0,3.421h6.843a1.711,1.711,0,1,0,0-3.421Z" transform="translate(-126.339 -254.992)" fill="#e9e9e9"/>
      <path id="Path_203" data-name="Path 203" d="M160.554,288h-6.843a1.711,1.711,0,0,0,0,3.421h6.843a1.711,1.711,0,0,0,0-3.421Z" transform="translate(-126.339 -229.835)" fill="#e9e9e9"/>
      <path id="Path_204" data-name="Path 204" d="M240.5,416H209.711a1.711,1.711,0,1,0,0,3.421H240.5a1.711,1.711,0,1,0,0-3.421Z" transform="translate(-170.364 -330.464)" fill="#e9e9e9"/>
    </g>
  </g>
</svg>
