<svg xmlns="http://www.w3.org/2000/svg" xmlns:xlink="http://www.w3.org/1999/xlink" width="211.413" height="196.484" viewBox="0 0 211.413 196.484">
  <defs>
    <filter id="Path_212" x="0" y="0" width="211.413" height="196.484" filterUnits="userSpaceOnUse">
      <feOffset dx="4" dy="4" input="SourceAlpha"/>
      <feGaussianBlur stdDeviation="4" result="blur"/>
      <feFlood flood-opacity="0.161"/>
      <feComposite operator="in" in2="blur"/>
      <feComposite in="SourceGraphic"/>
    </filter>
  </defs>
  <g id="Group_132" data-name="Group 132" transform="translate(-1347.5 -1744)">
    <g transform="matrix(1, 0, 0, 1, 1347.5, 1744)" filter="url(#Path_212)">
      <path id="Path_212-2" data-name="Path 212" d="M285.51,247.147c26.1-2.718,55.762-18.377,75.763-3.191,20.115,15.273,8.421,43.934,8.9,67.471.49,24.3,10.516,50.669-6.125,69.938-17.879,20.7-49.374,30.868-78.533,28.086-27.12-2.588-45.063-23.586-63.333-41.622-16.905-16.688-36.667-33.935-35.964-56.4.692-22.116,19.3-40.336,39.4-53.345,17.139-11.095,38.855-8.744,59.9-10.935" transform="translate(-178.19 -229.42)" fill="#f5913a"/>
    </g>
    <g id="check-list" transform="translate(1422.75 1787)">
      <path id="Path_81" data-name="Path 81" d="M137.385,0H70.719a4.772,4.772,0,0,0-4.767,4.767V35.618a1.5,1.5,0,1,0,3.007,0V4.767a1.762,1.762,0,0,1,1.76-1.76h66.666a1.762,1.762,0,0,1,1.76,1.76V97.876a1.762,1.762,0,0,1-1.76,1.76H70.719a1.762,1.762,0,0,1-1.76-1.76V41.632a1.5,1.5,0,0,0-3.007,0V97.877a4.772,4.772,0,0,0,4.767,4.767h66.666a4.773,4.773,0,0,0,4.767-4.767V4.767A4.772,4.772,0,0,0,137.385,0Z" transform="translate(-65.952 0)" fill="#e9e9e9"/>
      <path id="Path_82" data-name="Path 82" d="M148.515,30.755H118.754a1.5,1.5,0,0,0-1.5,1.5V35.8H104.456a1.5,1.5,0,0,0-1.5,1.5v81.013a1.5,1.5,0,0,0,1.5,1.5h58.358a1.5,1.5,0,0,0,1.5-1.5V89.78a1.5,1.5,0,0,0-3.007,0v27.029H105.959V38.8H117.25v3.534a1.5,1.5,0,0,0,1.5,1.5h29.761a1.5,1.5,0,0,0,1.5-1.5V38.8H161.31V83.765a1.5,1.5,0,1,0,3.007,0V37.3a1.5,1.5,0,0,0-1.5-1.5H150.018V32.259A1.5,1.5,0,0,0,148.515,30.755Zm-1.5,10.077H120.258v-7.07h26.754v7.07Z" transform="translate(-95.534 -24.589)" fill="#e9e9e9"/>
      <path id="Path_83" data-name="Path 83" d="M171.063,122.228a4.278,4.278,0,0,0-4.273-4.273H156.8a4.278,4.278,0,0,0-4.273,4.273v9.994A4.278,4.278,0,0,0,156.8,136.5h9.994a4.278,4.278,0,0,0,4.273-4.273Zm-3.007,9.994a1.268,1.268,0,0,1-1.266,1.266H156.8a1.268,1.268,0,0,1-1.266-1.266v-9.994a1.268,1.268,0,0,1,1.266-1.266h9.994a1.268,1.268,0,0,1,1.266,1.266Z" transform="translate(-135.168 -94.308)" fill="#e9e9e9"/>
      <path id="Path_84" data-name="Path 84" d="M184.328,148.269l-2.255,2.428-.491-.491a1.5,1.5,0,1,0-2.126,2.126l1.594,1.595a1.5,1.5,0,0,0,1.063.44h.028a1.5,1.5,0,0,0,1.074-.48l3.317-3.572a1.5,1.5,0,0,0-2.2-2.046Z" transform="translate(-156.349 -118.16)" fill="#e9e9e9"/>
      <path id="Path_85" data-name="Path 85" d="M270.985,129.258h7.148a1.5,1.5,0,1,0,0-3.007h-7.148a1.5,1.5,0,0,0,0,3.007Z" transform="translate(-228.678 -100.941)" fill="#e9e9e9"/>
      <path id="Path_86" data-name="Path 86" d="M270.985,190.15h7.148a1.5,1.5,0,0,0,0-3.007h-7.148a1.5,1.5,0,0,0,0,3.007Z" transform="translate(-228.678 -149.625)" fill="#e9e9e9"/>
      <path id="Path_87" data-name="Path 87" d="M286.821,156.7H270.985a1.5,1.5,0,1,0,0,3.007h15.837a1.5,1.5,0,0,0,0-3.007Z" transform="translate(-228.678 -125.283)" fill="#e9e9e9"/>
      <path id="Path_88" data-name="Path 88" d="M171.063,234.95a4.278,4.278,0,0,0-4.273-4.273H156.8a4.278,4.278,0,0,0-4.273,4.273v9.994a4.278,4.278,0,0,0,4.273,4.273h9.994a4.278,4.278,0,0,0,4.273-4.273Zm-3.007,9.994a1.268,1.268,0,0,1-1.266,1.266H156.8a1.267,1.267,0,0,1-1.266-1.266V234.95a1.268,1.268,0,0,1,1.266-1.266h9.994a1.268,1.268,0,0,1,1.266,1.266Z" transform="translate(-135.168 -184.432)" fill="#e9e9e9"/>
      <path id="Path_89" data-name="Path 89" d="M184.328,260.99l-2.255,2.428-.491-.491a1.5,1.5,0,1,0-2.126,2.126l1.594,1.595a1.5,1.5,0,0,0,1.063.44h.028a1.5,1.5,0,0,0,1.074-.48l3.317-3.572a1.5,1.5,0,0,0-2.2-2.046Z" transform="translate(-156.349 -208.284)" fill="#e9e9e9"/>
      <path id="Path_90" data-name="Path 90" d="M270.985,241.979h7.148a1.5,1.5,0,0,0,0-3.007h-7.148a1.5,1.5,0,0,0,0,3.007Z" transform="translate(-228.678 -191.064)" fill="#e9e9e9"/>
      <path id="Path_91" data-name="Path 91" d="M270.985,302.871h7.148a1.5,1.5,0,1,0,0-3.007h-7.148a1.5,1.5,0,0,0,0,3.007Z" transform="translate(-228.678 -239.748)" fill="#e9e9e9"/>
      <path id="Path_92" data-name="Path 92" d="M286.821,269.418H270.985a1.5,1.5,0,1,0,0,3.007h15.837a1.5,1.5,0,1,0,0-3.007Z" transform="translate(-228.678 -215.406)" fill="#e9e9e9"/>
      <path id="Path_93" data-name="Path 93" d="M166.789,343.4H156.8a4.278,4.278,0,0,0-4.273,4.273v9.994a4.278,4.278,0,0,0,4.273,4.273h9.994a4.278,4.278,0,0,0,4.273-4.273v-9.994A4.278,4.278,0,0,0,166.789,343.4Zm1.266,14.267a1.268,1.268,0,0,1-1.266,1.266H156.8a1.268,1.268,0,0,1-1.266-1.266v-9.994a1.268,1.268,0,0,1,1.266-1.266h9.994a1.268,1.268,0,0,1,1.266,1.266Z" transform="translate(-135.167 -274.555)" fill="#e9e9e9"/>
      <path id="Path_94" data-name="Path 94" d="M184.328,373.711l-2.255,2.428-.491-.491a1.5,1.5,0,0,0-2.126,2.126l1.594,1.595a1.5,1.5,0,0,0,1.063.44h.028a1.5,1.5,0,0,0,1.074-.48l3.317-3.572a1.5,1.5,0,0,0-2.2-2.046Z" transform="translate(-156.349 -298.407)" fill="#e9e9e9"/>
      <path id="Path_95" data-name="Path 95" d="M270.985,354.7h7.148a1.5,1.5,0,1,0,0-3.007h-7.148a1.5,1.5,0,0,0,0,3.007Z" transform="translate(-228.678 -281.187)" fill="#e9e9e9"/>
      <path id="Path_96" data-name="Path 96" d="M270.985,412.585a1.5,1.5,0,1,0,0,3.007h7.148a1.5,1.5,0,1,0,0-3.007Z" transform="translate(-228.678 -329.872)" fill="#e9e9e9"/>
      <path id="Path_97" data-name="Path 97" d="M288.325,383.643a1.5,1.5,0,0,0-1.5-1.5H270.985a1.5,1.5,0,1,0,0,3.007h15.837A1.5,1.5,0,0,0,288.325,383.643Z" transform="translate(-228.678 -305.529)" fill="#e9e9e9"/>
    </g>
  </g>
</svg>
