<svg xmlns="http://www.w3.org/2000/svg" xmlns:xlink="http://www.w3.org/1999/xlink" width="203.433" height="196.484" viewBox="0 0 203.433 196.484">
  <defs>
    <filter id="Path_211" x="0" y="0" width="203.433" height="196.484" filterUnits="userSpaceOnUse">
      <feOffset dx="4" dy="4" input="SourceAlpha"/>
      <feGaussianBlur stdDeviation="4" result="blur"/>
      <feFlood flood-opacity="0.161"/>
      <feComposite operator="in" in2="blur"/>
      <feComposite in="SourceGraphic"/>
    </filter>
  </defs>
  <g id="Group_131" data-name="Group 131" transform="translate(-861.499 -1744)">
    <g transform="matrix(1, 0, 0, 1, 861.5, 1744)" filter="url(#Path_211)">
      <path id="Path_211-2" data-name="Path 211" d="M300.537,258.977c24.878-.716,52.364-17.736,71.79-2.178,19.843,15.893,17.122,46.446,15.123,71.79-1.81,22.949-10.005,44.378-25.62,61.293-16.346,17.707-37.2,32.371-61.293,32.854-24.477.491-46.781-12.748-63.8-30.346a95.706,95.706,0,0,1-27.261-63.8c-.749-24.821,3.563-52.69,23.291-67.771,18.664-14.268,44.288-1.165,67.771-1.841" transform="translate(-201.39 -242.27)" fill="#2e74d1"/>
    </g>
    <g id="monitor" transform="translate(909.498 1787)">
      <path id="Path_121" data-name="Path 121" d="M101.021,32.007H98.938a14.434,14.434,0,1,0-21.5,0H57.718V15.969a1.6,1.6,0,0,0-1.6-1.6H49.7a1.6,1.6,0,0,0-1.6,1.6V32.007h-1.6V9.554a1.6,1.6,0,0,0-1.6-1.6H38.472a1.6,1.6,0,0,0-1.6,1.6V32.007h-1.6V20.781a1.6,1.6,0,0,0-1.6-1.6H27.246a1.6,1.6,0,0,0-1.6,1.6V32.007H14.415A6.422,6.422,0,0,0,8,38.423V86.537a6.422,6.422,0,0,0,6.415,6.415H47.474l-2.139,6.415H40.076a1.6,1.6,0,0,0-1.6,1.6v3.208H22.434a1.6,1.6,0,1,0,0,3.208H93a1.6,1.6,0,1,0,0-3.208H76.964v-3.208a1.6,1.6,0,0,0-1.6-1.6H70.1l-2.139-6.415h33.059a6.422,6.422,0,0,0,6.415-6.415V38.423A6.422,6.422,0,0,0,101.021,32.007ZM89.794,11.274A11.249,11.249,0,0,1,99.3,20.781H89.794Zm-.94,12.714H99.3a11.219,11.219,0,0,1-17.83,7.384Zm-11.89-1.6a11.244,11.244,0,0,1,9.623-11.11V21.721L79.2,29.1a11.168,11.168,0,0,1-2.239-6.72ZM51.3,17.573H54.51V48.046H51.3ZM46.491,35.215h1.6v12.83h-1.6ZM40.076,11.158h3.208V48.046H40.076ZM35.265,35.215h1.6v12.83h-1.6ZM28.85,22.385h3.208V48.046H28.85Zm44.907,80.19v1.6H41.68v-1.6ZM48.717,99.367l2.139-6.415H64.58l2.139,6.415Zm55.512-12.83a3.212,3.212,0,0,1-3.208,3.208H14.415a3.212,3.212,0,0,1-3.208-3.208V83.329h93.021Zm0-6.415H11.208v-41.7a3.212,3.212,0,0,1,3.208-3.208H25.642v12.83h-1.6V38.423a1.6,1.6,0,0,0-1.6-1.6H16.019a1.6,1.6,0,0,0-1.6,1.6V49.649a1.6,1.6,0,0,0,1.6,1.6H67.341a1.6,1.6,0,0,0,1.6-1.6V38.423a1.6,1.6,0,0,0-1.6-1.6H60.926a1.6,1.6,0,0,0-1.6,1.6v9.623h-1.6V35.215H81.591a14.381,14.381,0,0,0,13.2,0h6.231a3.212,3.212,0,0,1,3.208,3.208Zm-83.4-40.1v8.019H17.623V40.027Zm41.7,8.019V40.027h3.208v8.019Z" transform="translate(-8 -7.938)" fill="#e9e9e9"/>
      <path id="Path_122" data-name="Path 122" d="M51.227,392H41.6a1.6,1.6,0,1,0,0,3.208h9.623a1.6,1.6,0,1,0,0-3.208Z" transform="translate(-33.585 -315.005)" fill="#e9e9e9"/>
      <path id="Path_123" data-name="Path 123" d="M115.208,392h-1.6a1.6,1.6,0,1,0,0,3.208h1.6a1.6,1.6,0,1,0,0-3.208Z" transform="translate(-91.15 -315.005)" fill="#e9e9e9"/>
      <path id="Path_124" data-name="Path 124" d="M337.6,169.623a1.6,1.6,0,0,0,1.134-.47l5.945-5.946h13.77a1.6,1.6,0,1,0,0-3.208H344.019a1.6,1.6,0,0,0-1.134.47l-6.415,6.415a1.6,1.6,0,0,0,1.134,2.738Z" transform="translate(-270.243 -129.515)" fill="#e9e9e9"/>
      <path id="Path_125" data-name="Path 125" d="M121.771,251.227a4.811,4.811,0,0,0-4.16,2.4l-16.79-9.8a4.811,4.811,0,0,0-9.444.12l-16.9,12.672a4.807,4.807,0,0,0-8.316.437l-16.7-6.959a4.813,4.813,0,1,0-.393,3.31l16.7,6.959a4.81,4.81,0,0,0,9.41-.265l16.9-12.672a4.806,4.806,0,0,0,8.191-.21l16.79,9.8a4.811,4.811,0,1,0,4.711-5.792Zm-75.379.008a1.608,1.608,0,1,1,0-.008Zm24.057,9.615a1.606,1.606,0,0,1-1.6-1.6v-.008a1.6,1.6,0,1,1,1.6,1.612ZM96.11,246.415a1.6,1.6,0,1,1,1.6-1.6A1.6,1.6,0,0,1,96.11,246.415Zm25.661,11.227a1.6,1.6,0,1,1,1.6-1.6A1.6,1.6,0,0,1,121.771,257.642Z" transform="translate(-33.561 -193.477)" fill="#e9e9e9"/>
      <path id="Path_126" data-name="Path 126" d="M332.83,344H321.6a1.6,1.6,0,1,0,0,3.208H332.83a1.6,1.6,0,1,0,0-3.208Z" transform="translate(-257.451 -276.628)" fill="#e9e9e9"/>
      <path id="Path_127" data-name="Path 127" d="M358.415,320H353.6a1.6,1.6,0,1,0,0,3.208h4.811a1.6,1.6,0,0,0,0-3.208Z" transform="translate(-283.036 -257.439)" fill="#e9e9e9"/>
      <path id="Path_128" data-name="Path 128" d="M41.6,235.208H59.246a1.6,1.6,0,0,0,0-3.208H41.6a1.6,1.6,0,1,0,0,3.208Z" transform="translate(-33.585 -187.081)" fill="#e9e9e9"/>
      <path id="Path_129" data-name="Path 129" d="M153.6,235.208h1.6a1.6,1.6,0,1,0,0-3.208h-1.6a1.6,1.6,0,1,0,0,3.208Z" transform="translate(-123.131 -187.081)" fill="#e9e9e9"/>
    </g>
  </g>
</svg>
