<svg xmlns="http://www.w3.org/2000/svg" width="51.632" height="36.88" viewBox="0 0 51.632 36.88">
  <path id="temp_abstract-2944AC4429AC44_temp" d="M49.973,40.065a5.1,5.1,0,0,0-7.081.274l-.569.577a1.24,1.24,0,0,1-1.769,0h0a1.269,1.269,0,0,1-.272-.412,1.285,1.285,0,0,1,0-.972,1.27,1.27,0,0,1,.272-.412L42.4,37.249a5.277,5.277,0,0,0,.271-7.178,5.065,5.065,0,0,0-1.642-1.217,5,5,0,0,0-3.985-.1,5.056,5.056,0,0,0-1.7,1.136l-7.973,8.083a1.241,1.241,0,0,1-1.769,0h0a1.269,1.269,0,0,1-.272-.412,1.284,1.284,0,0,1,0-.972,1.27,1.27,0,0,1,.272-.412L34.855,26.8a5.133,5.133,0,0,0,1.123-1.665A5.195,5.195,0,0,0,36,21.181,5.135,5.135,0,0,0,34.9,19.5a5.057,5.057,0,0,0-1.656-1.118,5,5,0,0,0-3.9.024A5.059,5.059,0,0,0,27.7,19.547L1.526,46.079A5.133,5.133,0,0,0,.4,47.744,5.195,5.195,0,0,0,.379,51.7a5.135,5.135,0,0,0,1.1,1.679A5.064,5.064,0,0,0,3.138,54.5a5.018,5.018,0,0,0,5.544-1.162L20.45,41.4a1.249,1.249,0,0,1,.406-.275,1.234,1.234,0,0,1,.958,0,1.249,1.249,0,0,1,.406.275,1.268,1.268,0,0,1,.272.411,1.283,1.283,0,0,1,0,.971,1.267,1.267,0,0,1-.272.411l-2.736,2.775a5.279,5.279,0,0,0-.123,7.344A5.053,5.053,0,0,0,21,54.439a5,5,0,0,0,3.885.01,5.055,5.055,0,0,0,1.647-1.115L35.4,44.344a1.249,1.249,0,0,1,.406-.275,1.234,1.234,0,0,1,.958,0,1.249,1.249,0,0,1,.406.275l.165.168a1.032,1.032,0,0,1,.221.335,1.043,1.043,0,0,1,0,.79,1.031,1.031,0,0,1-.221.335h0a5.282,5.282,0,0,0-.34,7.11,5.071,5.071,0,0,0,1.641,1.26,5,5,0,0,0,4.028.137,5.058,5.058,0,0,0,1.72-1.145L50.15,47.49a5.142,5.142,0,0,0,1.12-1.721,5.194,5.194,0,0,0-.1-4.039,5.129,5.129,0,0,0-1.2-1.665Z" transform="translate(0 -18)" fill="#1a1b1c"/>
</svg>
