<svg width="884" height="304" viewBox="0 0 884 304" fill="none" xmlns="http://www.w3.org/2000/svg">
<path d="M264.8 86V214.1H218.8V86H264.8Z" fill="white"/>
<path d="M264 28.8999V74.8999H219.7V28.8999H264V28.8999Z" fill="white"/>
<path d="M377.3 70.8999C385.1 75.0999 391.1 80.5999 395.3 87.4999V66.6999H440.2V213C440.2 226.5 437.5 238.7 432.2 249.6C426.9 260.5 418.7 269.3 407.8 275.7C396.9 282.2 383.2 285.4 366.9 285.4C345.2 285.4 327.6 280.3 314.1 270C300.7 260 293 246.1 291 228.6H335.4C336.8 234.2 340.1 238.6 345.4 241.9C350.7 245.1 357.1 246.8 364.8 246.8C374.1 246.8 381.5 244.1 387 238.8C392.5 233.5 395.3 224.9 395.3 213.2V192.4C390.9 199.2 384.9 204.8 377.2 209.1C369.5 213.4 360.5 215.5 350.1 215.5C338 215.5 327.1 212.4 317.3 206.2C307.5 200 299.7 191.1 294.1 179.7C288.4 168.2 285.6 155 285.6 139.9C285.6 124.8 288.4 111.6 294.1 100.2C299.8 88.7999 307.5 80.0999 317.3 73.8999C327.1 67.7999 338.1 64.6999 350.1 64.6999C360.5 64.5999 369.5 66.6999 377.3 70.8999ZM386 113.5C379.8 107 372.2 103.8 363.3 103.8C354.4 103.8 346.8 107 340.6 113.4C334.4 119.8 331.3 128.6 331.3 139.8C331.3 151 334.4 159.9 340.6 166.5C346.8 173.1 354.4 176.4 363.3 176.4C372.2 176.4 379.8 173.2 386 166.7C392.2 160.2 395.3 151.4 395.3 140.2C395.3 128.8 392.2 120 386 113.5Z" fill="white"/>
<path d="M555.7 70.9C563.5 75.1 569.5 80.6 573.7 87.5V66.7H618.6V213C618.6 226.5 615.9 238.7 610.6 249.6C605.3 260.5 597.1 269.3 586.2 275.7C575.3 282.2 561.6 285.4 545.3 285.4C523.6 285.4 506 280.3 492.5 270C479 259.8 471.3 245.9 469.4 228.4H513.8C515.2 234 518.5 238.4 523.8 241.7C529.1 244.9 535.5 246.6 543.2 246.6C552.5 246.6 559.9 243.9 565.4 238.6C570.9 233.3 573.7 224.7 573.7 213V192.2C569.3 199 563.3 204.6 555.6 208.9C547.9 213.2 538.9 215.3 528.5 215.3C516.4 215.3 505.5 212.2 495.7 206C485.9 199.8 478.1 190.9 472.5 179.5C466.8 168 464 154.8 464 139.7C464 124.6 466.8 111.4 472.5 100C478.2 88.6 485.9 79.9 495.7 73.7C505.5 67.6 516.5 64.5 528.5 64.5C538.9 64.6 547.9 66.7 555.7 70.9ZM564.4 113.5C558.2 107 550.6 103.8 541.7 103.8C532.8 103.8 525.2 107 519 113.4C512.8 119.8 509.7 128.6 509.7 139.8C509.7 151 512.8 159.9 519 166.5C525.2 173.1 532.8 176.4 541.7 176.4C550.6 176.4 558.2 173.2 564.4 166.7C570.6 160.2 573.7 151.4 573.7 140.2C573.7 128.8 570.6 120 564.4 113.5Z" fill="white"/>
<path d="M692 28.8999V215.1H647V28.8999H692Z" fill="white"/>
<path d="M864 150.8H762.4C763.1 159.9 766 166.9 771.2 171.7C776.4 176.5 782.7 178.9 790.2 178.9C801.4 178.9 809.2 174.2 813.6 164.7H861.4C858.9 174.3 854.5 183 848.1 190.7C841.7 198.4 833.7 204.5 824.1 208.8C814.5 213.2 803.7 215.4 791.8 215.4C777.4 215.4 764.7 212.3 753.4 206.2C742.2 200.1 733.4 191.3 727.1 179.9C720.8 168.5 717.6 155.2 717.6 140C717.6 124.8 720.7 111.5 726.9 100.1C733.1 88.7001 741.8 80.0001 753 73.8001C764.2 67.7001 777.1 64.6001 791.6 64.6001C805.8 64.6001 818.4 67.6001 829.4 73.5001C840.4 79.5001 849.1 87.9001 855.3 99.0001C861.5 110 864.6 122.9 864.6 137.6C864.8 141.9 864.5 146.3 864 150.8ZM818.8 125.9C818.8 118.2 816.2 112.1 810.9 107.5C805.6 102.9 799.1 100.7 791.2 100.7C783.7 100.7 777.3 102.9 772.2 107.3C767 111.7 763.8 117.9 762.6 126H818.8V125.9Z" fill="white"/>
<path d="M144.4 99.6C133.7 104.7 121.7 107.6 109 107.6C96.4001 107.6 84.6001 104.8 73.9001 99.7V86.5H27.6001V213.8V214.1H73.9001V145.8H74.1001C84.7001 150.8 96.5001 153.6 108.9 153.6C121.5 153.6 133.5 150.7 144.2 145.6H144.3V214.1H144.5V214.2H190.7V86.5H144.3V99.6H144.4Z" fill="white"/>
<path d="M73.9001 28.8H27.6001V29.6V33.1V64.6V74.9001H73.9001V28.8Z" fill="white"/>
<path d="M190.7 71.8001V29.2001V28.8H144.4V74.9001H190.7V71.8001Z" fill="white"/>
</svg>
